<?xml version="1.0" standalone="no"?>
<!DOCTYPE svg PUBLIC "-//W3C//DTD SVG 20010904//EN"
 "http://www.w3.org/TR/2001/REC-SVG-20010904/DTD/svg10.dtd">
<svg version="1.0" xmlns="http://www.w3.org/2000/svg"
 width="463.000000pt" height="463.000000pt" viewBox="0 0 463.000000 463.000000"
 preserveAspectRatio="xMidYMid meet">
<metadata>
Created by potrace 1.11, written by Peter Selinger 2001-2013
</metadata>
<g transform="translate(0.000000,463.000000) scale(0.100000,-0.100000)"
fill="#000000" stroke="none">
<path d="M206 4614 c-17 -16 -19 -25 -17 -59 1 -12 -10 -38 -24 -58 -26 -39
-35 -84 -13 -71 11 7 8 -57 -7 -131 -4 -16 -4 -27 -1 -25 8 9 37 94 37 110 0
29 32 91 45 86 7 -3 15 0 17 7 8 21 19 -1 24 -47 5 -37 2 -46 -16 -58 -11 -7
-21 -20 -21 -28 1 -12 3 -12 14 3 20 26 35 21 52 -18 16 -39 18 -77 5 -90 -12
-13 -16 -65 -7 -87 13 -29 2 -62 -24 -75 -17 -8 -26 -9 -31 -2 -3 6 -8 0 -11
-14 -4 -22 -3 -24 13 -14 14 9 21 9 30 0 16 -16 4 -43 -19 -43 -11 0 -25 -7
-32 -15 -7 -8 -9 -15 -5 -15 4 0 3 -6 -2 -12 -6 -7 -13 -22 -17 -33 -6 -16 -5
-18 5 -7 18 17 24 15 37 -12 14 -31 1 -70 -48 -146 -19 -30 -38 -62 -42 -70
-6 -13 -7 -13 -8 0 -1 8 -6 -3 -10 -25 -5 -22 -6 -57 -3 -77 5 -36 4 -38 -20
-38 -14 0 -29 -4 -32 -10 -3 -5 0 -7 9 -4 8 3 26 -2 40 -11 30 -20 35 -64 10
-89 -21 -21 -36 -20 -68 5 -25 19 -25 22 -11 50 9 17 11 29 5 29 -5 0 -10 -7
-10 -15 0 -18 -12 -19 -27 -4 -19 19 -27 -10 -8 -31 11 -12 13 -20 6 -25 -6
-3 -11 -15 -11 -26 0 -11 4 -17 10 -14 5 3 10 15 10 26 0 22 11 24 28 7 17
-17 15 -26 -6 -32 -9 -2 -3 -5 13 -4 48 0 53 -1 59 -18 7 -19 -64 -154 -81
-154 -7 0 -13 -12 -13 -27 -1 -16 -7 -39 -15 -53 -15 -26 -21 -54 -6 -32 13
22 48 -48 48 -96 0 -23 -4 -42 -9 -42 -5 0 -7 -4 -3 -9 3 -5 -4 -13 -16 -16
-13 -4 -18 -12 -15 -21 3 -9 1 -12 -4 -9 -14 9 -12 -2 5 -29 9 -13 14 -30 13
-37 -4 -19 33 -12 47 8 11 14 12 14 18 -1 6 -16 47 -23 47 -8 0 4 -7 27 -15
50 -15 43 -15 45 16 99 17 30 37 57 45 60 7 2 11 10 8 16 -5 13 70 138 105
175 11 12 21 27 21 32 0 6 6 10 14 10 9 0 12 7 9 18 -3 12 8 33 32 58 21 21
37 40 36 42 -6 14 5 22 32 23 17 0 25 3 17 6 -25 10 -29 25 -12 52 31 50 55
71 83 71 36 0 40 7 28 59 -8 35 -7 47 6 61 22 24 19 31 -10 24 -19 -5 -25 -2
-25 10 0 9 -6 16 -14 16 -17 0 -60 122 -53 150 3 12 -2 20 -14 23 -11 3 -19
14 -19 26 0 12 -7 32 -15 45 -26 40 -20 140 11 165 10 9 25 30 32 46 8 17 22
47 32 68 10 20 17 37 15 37 -2 0 -20 -23 -40 -50 -20 -28 -47 -53 -60 -56 -12
-3 -22 -13 -21 -21 0 -9 -5 -18 -11 -20 -26 -9 13 212 40 232 8 6 14 23 15 39
0 15 8 40 19 54 19 26 19 28 2 42 -16 13 -17 21 -10 54 5 21 16 43 23 47 9 6
2 9 -18 9 -17 0 -37 -7 -44 -15 -7 -8 -19 -15 -26 -15 -17 0 -19 -37 -2 -42
15 -5 15 -68 -1 -77 -7 -5 -12 -14 -11 -22 6 -43 -1 -80 -17 -86 -10 -4 -21
-11 -25 -17 -10 -16 -25 3 -33 42 -6 29 -4 34 14 39 30 8 26 21 -4 15 -25 -4
-25 -4 -24 69 1 41 6 82 11 92 7 15 4 17 -26 17 -19 0 -42 -7 -50 -16z m170
-602 c0 -4 10 -27 22 -52 29 -60 29 -124 1 -143 -12 -9 -16 -17 -10 -21 6 -4
16 2 23 14 17 26 34 25 42 -3 3 -12 19 -43 35 -67 44 -67 47 -91 17 -127 -24
-29 -27 -30 -125 -31 -56 -1 -101 2 -101 7 0 4 9 20 20 33 20 26 43 78 35 78
-3 0 -16 -18 -30 -40 -14 -22 -30 -40 -35 -40 -6 0 -10 20 -10 44 0 52 26 213
40 241 5 11 10 31 12 45 2 15 12 29 26 35 12 5 20 15 18 21 -3 7 -2 15 1 18 7
6 17 -1 19 -12z m-139 -244 c-3 -8 -6 -5 -6 6 -1 11 2 17 5 13 3 -3 4 -12 1
-19z m-36 -84 c-2 -32 0 -44 8 -40 7 5 11 -3 11 -23 0 -26 -6 -33 -36 -46 -20
-8 -38 -15 -40 -15 -2 0 -4 18 -4 40 0 43 30 115 52 123 7 3 13 6 13 6 0 1 -2
-20 -4 -45z m59 -90 c0 -26 -17 -33 -26 -9 -8 20 3 48 16 40 5 -3 10 -17 10
-31z m200 -38 c0 -8 -5 -18 -10 -21 -6 -4 -8 -10 -5 -15 3 -4 -2 -13 -10 -20
-8 -7 -15 -19 -15 -26 0 -8 -11 -16 -24 -20 -16 -4 -27 -17 -35 -44 -11 -38
-54 -79 -83 -81 -10 0 -10 -2 0 -6 17 -7 15 -28 -3 -43 -9 -7 -22 -27 -31 -45
-8 -18 -26 -37 -38 -43 -23 -10 -24 -8 -31 35 -7 50 2 123 16 123 4 0 6 7 3
15 -4 8 -3 26 0 40 6 24 10 25 77 24 38 -1 73 2 76 5 4 3 -5 6 -20 6 -14 0
-28 4 -31 9 -3 5 -17 11 -31 13 -13 3 -22 2 -20 -3 6 -9 -14 -24 -21 -16 -12
12 17 83 42 104 24 20 38 23 111 23 66 0 83 -3 83 -14z m-333 -303 c-3 -3 -11
-2 -17 2 -8 5 -7 11 2 22 12 15 13 14 16 -1 2 -10 1 -20 -1 -23z m-27 -23 c0
-11 5 -20 10 -20 17 0 11 -18 -14 -45 -24 -26 -25 -26 -35 -6 -15 27 -14 37 5
66 20 30 34 32 34 5z m69 -58 c7 -24 6 -32 -6 -36 -8 -3 -12 -9 -9 -14 2 -4
-4 -9 -15 -9 -21 -2 -23 6 -10 39 5 13 12 32 15 42 8 23 14 18 25 -22z m-19
-105 c0 -8 -9 -22 -20 -32 -23 -20 -24 -17 -10 19 10 27 30 35 30 13z"/>
<path d="M375 3750 c-3 -5 -1 -10 4 -10 6 0 11 5 11 10 0 6 -2 10 -4 10 -3 0
-8 -4 -11 -10z"/>
<path d="M320 4610 c6 -11 16 -20 22 -20 6 0 3 9 -7 20 -10 11 -20 20 -22 20
-2 0 1 -9 7 -20z"/>
<path d="M507 4610 c4 -16 8 -18 19 -9 20 16 17 29 -5 29 -14 0 -18 -5 -14
-20z"/>
<path d="M688 4601 c-3 -22 -1 -27 12 -24 12 3 25 -14 48 -65 33 -70 40 -102
22 -102 -5 0 -10 -7 -10 -15 0 -8 6 -12 14 -9 15 6 28 -18 30 -56 1 -16 6 -24
16 -23 9 2 22 -14 34 -44 18 -43 18 -47 3 -58 -10 -7 -17 -17 -17 -24 0 -6 -4
-11 -10 -11 -5 0 -7 -6 -4 -14 3 -8 -5 -31 -18 -51 -20 -32 -27 -36 -56 -31
-19 3 -30 1 -27 -5 4 -5 13 -9 20 -9 11 0 13 -8 8 -32 -3 -18 -10 -39 -16 -45
-6 -9 -6 -13 0 -13 6 0 22 18 37 40 14 22 34 40 43 40 13 0 14 3 6 11 -14 14
12 73 27 64 6 -4 10 1 10 9 0 17 17 21 37 8 16 -10 54 -102 47 -114 -3 -5 2
-18 11 -28 15 -17 15 -21 0 -49 -8 -17 -20 -31 -25 -31 -6 0 -10 -15 -9 -32 1
-27 2 -29 7 -11 4 13 15 32 25 44 26 30 39 14 72 -86 15 -44 31 -88 36 -97 10
-18 -19 -89 -41 -103 -5 -3 -10 -14 -10 -23 0 -17 -28 -58 -67 -96 -13 -13
-19 -27 -14 -34 12 -20 41 -2 41 25 0 13 11 35 25 49 14 14 25 29 25 35 0 22
42 90 53 86 7 -2 21 -26 31 -53 10 -27 26 -65 34 -84 20 -46 21 -118 2 -130
-11 -7 -9 -11 12 -19 19 -7 30 -23 43 -60 9 -28 19 -51 22 -51 3 0 2 8 -1 17
-4 9 -2 20 5 23 7 5 8 13 1 26 -35 68 -43 100 -33 144 5 24 8 46 5 49 -2 2 -4
-1 -4 -7 0 -7 -6 -12 -14 -12 -14 0 -37 63 -51 143 -4 22 -13 37 -21 37 -8 0
-14 5 -14 10 0 6 4 10 10 10 5 0 7 7 4 15 -7 16 44 145 57 145 4 0 10 -9 14
-19 3 -11 12 -18 19 -15 21 8 66 -52 62 -84 -2 -15 -1 -21 1 -14 2 6 11 12 18
12 7 0 16 -6 18 -12 3 -7 6 -1 6 14 1 14 6 28 12 30 7 2 5 18 -6 46 -12 30
-16 57 -11 88 3 26 2 43 -3 39 -5 -3 -12 1 -14 7 -3 7 -6 0 -6 -15 l-1 -28
-29 20 c-32 23 -41 26 -41 11 0 -5 6 -10 13 -10 18 0 57 -63 57 -93 0 -42 -19
-42 -61 -1 -38 37 -49 67 -29 79 6 4 8 10 5 15 -3 5 -1 11 5 15 5 3 10 17 10
30 0 13 7 30 15 39 8 8 15 24 15 35 0 12 5 21 10 21 12 0 13 47 1 54 -5 3 -12
-2 -15 -11 -6 -15 -8 -15 -17 -3 -8 11 -9 9 -4 -8 7 -25 -14 -112 -28 -112 -4
0 -19 12 -34 26 -21 21 -24 32 -20 60 4 20 2 32 -4 29 -5 -4 -9 -20 -9 -37 0
-23 -4 -29 -15 -24 -12 4 -13 2 -2 -14 6 -11 17 -20 24 -20 7 0 13 -9 13 -21
0 -16 4 -19 20 -14 14 5 20 2 20 -9 0 -9 -4 -16 -10 -16 -5 0 -9 -10 -7 -21 3
-32 -19 -34 -48 -5 -14 14 -32 26 -40 26 -42 0 -59 66 -25 100 11 11 18 20 15
20 -3 0 1 14 10 30 9 17 20 30 25 30 6 0 10 8 10 18 0 10 9 37 20 60 20 42 40
55 40 27 0 -8 5 -15 11 -15 5 0 7 5 4 11 -11 16 -8 80 3 91 8 8 14 0 21 -23
l11 -34 -5 31 c-2 18 -7 44 -11 59 -6 25 -4 27 13 23 19 -5 20 -3 10 35 -8 30
-7 42 1 45 7 2 12 15 12 28 0 14 6 35 13 47 8 12 11 34 8 49 -6 25 -7 26 -26
12 -16 -12 -17 -16 -6 -23 9 -6 11 -16 7 -27 -4 -12 -10 -14 -14 -8 -4 6 -15
10 -26 8 -30 -4 -44 6 -51 36 -5 24 -11 28 -39 27 -29 -1 -32 -3 -23 -18 8
-13 8 -25 -1 -43 -13 -29 -33 -33 -52 -11 -7 8 -16 12 -21 9 -5 -3 -12 2 -15
10 -3 9 -10 13 -15 10 -5 -3 -2 -16 7 -29 8 -13 14 -34 12 -47 -2 -13 3 -28
11 -34 19 -15 4 -36 -19 -29 -13 4 -20 0 -25 -15 -4 -12 -4 -24 -1 -27 3 -4 6
1 6 10 0 9 7 17 15 17 8 0 15 -4 15 -9 0 -14 -39 -57 -40 -44 0 19 -30 3 -30
-16 0 -33 -21 -91 -33 -91 -14 0 -65 106 -74 153 -6 30 40 112 57 102 6 -4 10
5 10 18 0 14 6 30 14 36 8 6 16 21 19 32 4 16 3 18 -8 9 -9 -7 -28 -9 -47 -5
-26 5 -29 4 -15 -5 9 -6 17 -23 17 -38 0 -32 -44 -102 -65 -102 -17 0 -48 80
-49 126 -1 30 -4 34 -27 34 -22 0 -28 -5 -31 -29z m442 -30 c5 -11 11 -29 13
-40 4 -26 17 -40 17 -18 0 21 26 22 34 2 3 -8 1 -25 -3 -37 -8 -20 -10 -21
-16 -6 -4 9 -13 14 -21 11 -8 -3 -24 5 -35 18 -12 13 -25 23 -30 21 -9 -2 -2
42 8 61 7 13 22 8 33 -12z m-95 -41 c10 -16 -5 -50 -21 -50 -9 0 -14 11 -14
30 0 30 21 42 35 20z m69 -51 c7 -18 15 -26 17 -20 8 24 39 -1 45 -37 5 -27 3
-38 -10 -47 -9 -7 -14 -19 -10 -28 3 -9 -11 -49 -31 -89 -20 -40 -46 -92 -58
-115 -23 -46 -37 -52 -57 -28 -7 8 -23 15 -36 15 -30 0 -52 23 -60 64 -7 40
11 80 32 72 11 -4 14 -1 9 12 -3 11 3 29 13 43 10 13 24 39 31 57 14 34 25 40
35 20 4 -7 4 -2 1 12 -2 14 2 32 12 42 9 10 13 18 9 18 -4 0 -2 9 4 20 16 29
39 24 54 -11z m-214 -310 c0 -5 -4 -9 -10 -9 -5 0 -10 7 -10 16 0 8 5 12 10 9
6 -3 10 -10 10 -16z m100 -65 c28 -17 30 -42 7 -71 -16 -21 -23 -15 -40 28
-23 59 -14 70 33 43z m45 -156 c8 -18 13 -25 11 -16 -8 28 8 29 47 2 22 -15
37 -33 37 -45 0 -29 -27 -89 -40 -89 -6 0 -8 -4 -5 -10 3 -5 3 -15 -1 -21 -4
-8 -12 -3 -20 12 -14 26 -19 63 -6 55 4 -2 12 7 19 20 6 13 7 24 2 24 -5 0 -9
7 -9 15 0 8 -4 15 -10 15 -5 0 -10 -12 -10 -26 0 -15 -4 -23 -11 -19 -21 14
-48 115 -30 115 6 0 18 -15 26 -32z"/>
<path d="M1120 4423 c0 -10 4 -24 9 -32 6 -9 9 -5 9 13 0 15 -4 29 -9 32 -5 3
-9 -3 -9 -13z"/>
<path d="M1030 4364 c0 -8 5 -12 10 -9 6 4 8 11 5 16 -9 14 -15 11 -15 -7z"/>
<path d="M3455 4610 c-10 -11 -22 -17 -28 -13 -5 3 -8 0 -5 -8 5 -14 -20 -49
-35 -49 -4 0 -6 3 -4 8 3 4 -2 13 -10 21 -13 12 -14 11 -8 -8 3 -12 2 -20 -3
-19 -5 2 -19 -8 -31 -22 -18 -21 -20 -22 -15 -5 4 14 0 11 -12 -7 -25 -37 -35
-35 -23 4 13 46 -5 20 -21 -29 -7 -24 -19 -43 -25 -43 -7 0 -19 -10 -27 -22
-13 -19 -18 -21 -31 -10 -13 11 -17 10 -28 -10 -18 -34 -37 -50 -50 -42 -8 4
-9 3 -5 -5 4 -6 2 -19 -6 -28 -11 -14 -11 -16 2 -9 8 4 6 0 -4 -8 -11 -9 -16
-16 -10 -16 5 0 4 -4 -2 -8 -6 -4 -16 -16 -22 -27 -6 -11 -12 -14 -12 -7 0 10
-3 10 -14 0 -8 -7 -12 -16 -10 -20 7 -11 -25 -68 -37 -68 -6 0 -8 7 -5 16 3 8
2 12 -4 9 -6 -3 -7 -18 -4 -33 4 -19 3 -23 -4 -14 -7 11 -11 7 -16 -15 -4 -15
-7 -30 -6 -32 1 -2 -2 -7 -7 -10 -11 -7 -43 -75 -43 -90 0 -29 -73 -198 -92
-212 -11 -9 -19 -22 -16 -30 4 -13 -94 -60 -227 -108 -27 -10 -81 -33 -120
-50 -38 -18 -135 -58 -215 -90 -80 -32 -210 -85 -290 -119 -80 -33 -235 -97
-345 -142 -110 -44 -209 -85 -220 -89 -11 -5 -74 -31 -140 -56 -66 -26 -132
-54 -147 -61 l-28 -14 95 -97 c93 -95 95 -96 135 -90 48 6 45 -3 -9 -28 -31
-14 -38 -21 -30 -31 8 -10 -6 -18 -60 -35 l-71 -23 -77 27 c-72 26 -112 55
-113 83 0 16 -30 40 -30 25 0 -6 -8 -11 -19 -11 -10 0 -25 -10 -33 -22 -11
-16 -19 -19 -34 -13 -10 5 -28 9 -39 10 -60 5 -175 31 -175 40 0 4 67 116 116
192 21 35 42 63 46 63 4 0 24 -36 44 -80 21 -45 44 -80 52 -80 8 0 12 6 9 13
-3 6 -21 53 -41 103 -36 88 -36 91 -21 127 9 21 20 35 25 32 6 -3 10 0 11 7 0
7 2 25 3 41 2 33 -1 34 -14 5 -20 -46 -45 -77 -61 -78 -8 0 -87 163 -95 196
-5 18 -2 24 10 24 14 0 14 2 -2 18 -9 11 -21 17 -25 14 -5 -2 -14 4 -21 14
-13 17 -14 16 -25 -5 -11 -19 -10 -25 6 -36 13 -10 15 -18 8 -28 -5 -8 -28
-39 -49 -71 -21 -31 -45 -56 -53 -56 -8 0 -13 -6 -12 -12 3 -20 -10 -47 -73
-142 -32 -48 -58 -91 -58 -95 0 -3 -11 -23 -25 -43 -37 -55 -31 -77 8 -26 18
24 36 50 39 59 3 9 28 49 55 89 26 40 56 89 67 109 10 20 22 37 27 39 5 2 18
24 29 50 12 25 30 55 41 65 25 24 25 24 80 -91 42 -91 47 -122 24 -146 -8 -8
-15 -19 -15 -24 0 -5 -11 -26 -25 -46 -14 -21 -44 -72 -66 -114 -22 -42 -47
-82 -54 -88 -10 -7 -31 -8 -62 -3 -27 4 -78 8 -115 8 -58 1 -68 4 -68 19 -1
16 -2 16 -15 -1 -7 -10 -24 -18 -37 -17 -48 4 -60 0 -54 -16 5 -13 -1 -15 -32
-13 -35 2 -117 -7 -154 -18 -14 -3 -18 -15 -17 -51 l1 -47 12 35 c12 32 16 35
58 38 41 3 46 1 56 -25 19 -47 25 -83 14 -83 -6 0 -9 -16 -8 -35 2 -19 0 -33
-5 -32 -4 1 -14 -6 -21 -15 -12 -16 -16 -16 -52 3 -48 23 -56 24 -56 4 0 -8 7
-15 15 -15 19 0 19 -24 0 -86 -17 -56 -18 -64 -7 -63 30 5 33 -2 13 -37 -18
-30 -21 -51 -21 -148 l0 -113 25 5 c27 5 32 -6 12 -27 -10 -11 -9 -13 3 -9 8
2 21 16 27 30 12 24 87 57 101 44 3 -3 -3 -45 -13 -93 -20 -95 -33 -140 -34
-112 -1 11 -13 19 -35 23 -19 4 -36 13 -39 20 -3 8 -14 13 -24 12 -16 -3 -18
-15 -21 -108 l-3 -105 148 -2 c119 -1 150 -4 159 -16 6 -8 16 -15 22 -15 6 0
13 -3 15 -7 3 -5 -73 -7 -169 -5 l-174 3 0 -140 c0 -95 4 -142 12 -147 7 -4 8
-3 4 4 -4 6 16 48 44 92 27 45 50 85 50 89 0 5 10 21 22 37 l22 28 8 -35 c6
-30 1 -45 -50 -127 -120 -194 -112 -171 -112 -317 l0 -130 35 -28 c19 -15 35
-35 35 -43 0 -30 26 -6 77 72 29 43 58 79 65 79 7 0 13 13 14 28 1 35 24 60
43 48 11 -7 11 -13 0 -32 -12 -23 -12 -23 -20 -4 -7 19 -8 18 -8 -3 -1 -36
-45 -117 -183 -343 l-58 -97 3 -368 c2 -203 5 -378 8 -388 3 -11 11 -22 17
-24 7 -2 12 -10 12 -18 0 -12 231 -14 1635 -14 l1634 0 4 58 3 57 2 -57 2 -58
655 0 655 0 0 2315 0 2315 -579 0 c-560 -1 -579 -1 -596 -20z m-178 -170 c-7
-17 -13 -26 -15 -21 -3 10 15 51 22 51 3 0 -1 -14 -7 -30z m-519 -1272 c-3
-25 -34 -36 -52 -18 -8 8 -6 15 8 26 29 21 48 18 44 -8z m-242 -113 c7 -53 0
-79 -21 -71 -8 3 -15 1 -15 -4 0 -6 9 -10 20 -10 18 0 20 -7 20 -70 l0 -70
-112 0 c-176 0 -368 12 -368 23 0 11 -39 47 -52 47 -4 0 -8 5 -8 10 0 6 5 10
10 10 6 0 30 9 53 21 50 25 425 157 449 158 12 1 19 -11 24 -44z m220 -86 c-3
-17 -6 -38 -6 -46 0 -13 -3 -13 -15 -3 -15 13 -21 61 -8 73 3 4 13 7 21 7 11
0 13 -8 8 -31z m781 -131 c-4 -77 -14 -131 -40 -216 -43 -142 -71 -175 -191
-222 -83 -33 -236 -70 -292 -70 l-32 0 17 36 16 37 3 -28 c4 -27 4 -27 57 -21
68 8 245 70 306 108 47 28 78 78 107 168 20 62 42 193 42 253 0 31 3 57 6 57
4 0 4 -46 1 -102z m118 5 c-4 -44 -22 -125 -35 -158 -6 -16 -11 -32 -11 -35 1
-29 -47 -140 -61 -140 -4 0 -8 -5 -8 -11 0 -7 -8 -18 -17 -25 -14 -11 -15 -13
-3 -14 10 0 7 -5 -8 -16 -12 -8 -20 -19 -17 -24 3 -4 -2 -13 -10 -20 -8 -7
-15 -18 -15 -25 0 -20 -74 -79 -78 -62 -5 23 36 115 83 187 51 78 79 140 120
260 16 47 33 91 38 98 16 20 25 14 22 -15z m-2750 -51 c-8 -8 -25 10 -19 20 4
6 9 5 15 -3 4 -7 6 -15 4 -17z m1500 9 l140 -6 1 -47 c1 -42 -2 -48 -20 -49
-17 -1 -18 -2 -3 -6 10 -3 17 -14 17 -29 0 -24 -1 -24 -104 -24 -114 0 -428
17 -515 28 -47 6 -57 11 -72 39 -17 30 -17 31 4 38 15 5 -12 11 -80 19 -56 6
-105 15 -110 19 -4 5 1 15 12 24 17 13 59 14 305 8 157 -4 348 -10 425 -14z
m-1879 -3 c4 -6 1 -16 -7 -22 -8 -6 -15 -18 -17 -26 -8 -38 -33 -45 -149 -42
l-113 3 16 32 c31 60 34 62 153 64 74 2 112 -1 117 -9z m-288 -23 c-11 -24
-38 -35 -38 -16 0 5 -3 16 -6 25 -5 12 1 16 25 16 29 0 30 -1 19 -25z m467 -3
c22 -6 52 -14 68 -17 32 -6 33 -10 7 -53 -16 -27 -26 -33 -43 -28 -12 3 -60 8
-107 12 -113 9 -115 10 -84 62 25 42 27 42 72 39 26 -2 65 -9 87 -15z m208
-48 c37 -9 56 -53 31 -71 -10 -7 -27 -13 -38 -13 -27 0 -96 19 -96 27 0 3 9
21 21 40 14 22 27 32 38 29 9 -3 29 -8 44 -12z m571 -62 c98 -70 166 -161 166
-222 0 -21 -4 -41 -9 -44 -4 -3 -11 -18 -14 -33 -3 -16 -24 -47 -47 -71 -39
-40 -133 -102 -156 -102 -6 0 -9 21 -6 58 3 47 0 62 -17 82 -17 21 -20 22 -21
8 0 -11 -8 -18 -19 -18 -10 0 -21 -9 -24 -20 -4 -17 -11 -20 -34 -15 l-28 7
24 -20 24 -20 -42 -26 c-23 -15 -53 -31 -66 -36 -21 -8 -25 -5 -35 24 -8 26
-6 44 11 97 12 35 22 74 24 87 4 29 23 52 44 53 10 0 12 2 3 6 -6 2 -10 8 -7
13 8 13 -18 32 -124 88 -33 18 -61 36 -61 41 0 5 21 16 47 25 38 13 49 14 62
3 9 -7 32 -21 51 -31 31 -18 33 -18 21 -2 -8 9 -27 24 -43 32 -38 20 -37 44 3
44 35 0 107 19 125 32 6 5 18 6 27 2 8 -3 18 -1 22 5 10 17 15 15 99 -47z
m-460 17 c-6 -11 -24 -2 -24 11 0 5 7 7 15 4 8 -4 12 -10 9 -15z m-526 -39
c141 -11 161 -18 155 -55 -3 -14 -11 -25 -18 -25 -7 0 -15 -7 -19 -15 -3 -8
-12 -15 -20 -15 -27 0 -4 -42 30 -56 46 -19 65 -18 121 10 83 41 199 76 230
70 24 -5 32 -16 61 -87 46 -114 65 -182 49 -169 -22 19 -51 3 -71 -39 -11 -21
-22 -39 -25 -39 -20 0 -797 325 -815 340 -4 5 2 27 15 49 l23 41 80 0 c45 0
136 -5 204 -10z m1711 -10 c140 -5 274 -10 299 -10 l44 0 -8 -42 c-4 -24 -7
-58 -6 -75 l2 -33 -53 0 c-177 1 -639 39 -631 51 3 5 -1 9 -9 9 -14 0 -27 20
-27 40 0 5 12 13 28 18 24 9 21 11 -28 12 -77 3 -114 13 -118 30 -3 17 72 17
507 0z m-1454 -26 l30 -7 -29 -8 c-21 -6 -33 -3 -48 11 -23 21 -24 21 47 4z
m1964 -36 c0 -28 -2 -30 -9 -13 -12 28 -12 45 0 45 6 0 10 -15 9 -32z m-2612
-21 c0 -7 -6 -18 -14 -25 -16 -15 -17 -8 -3 19 12 22 17 24 17 6z m1024 -42
c27 -14 54 -23 59 -20 24 15 21 -31 -5 -86 -26 -54 -45 -75 -45 -49 0 6 -15
49 -34 95 -18 47 -32 85 -29 85 2 0 26 -11 54 -25z m1611 -18 c4 -20 1 -23
-19 -19 -22 4 -30 21 -16 35 14 14 31 6 35 -16z m-2664 -14 c-2 -10 -12 -19
-23 -21 -19 -3 -19 -2 -3 11 10 8 15 17 11 20 -3 4 -1 7 6 7 7 0 11 -8 9 -17z
m2207 -7 l250 -11 -2 -25 c-1 -14 -4 -43 -8 -65 -3 -22 -6 -50 -5 -63 0 -62
-69 -334 -117 -454 -22 -58 -30 -68 -51 -68 -15 0 -26 -7 -29 -19 -3 -13 -11
-17 -24 -14 -13 4 -19 0 -19 -11 0 -9 5 -16 11 -16 6 0 9 -9 6 -19 -3 -13 1
-22 12 -25 26 -8 -161 4 -304 20 -71 7 -135 14 -142 14 -6 0 -9 9 -6 20 3 11
0 20 -6 20 -6 0 -11 -6 -11 -12 -1 -9 -5 -7 -13 3 -7 9 -22 19 -35 23 -15 5
-22 15 -22 33 0 24 2 25 38 20 20 -3 82 -8 137 -11 l100 -5 -100 14 c-172 24
-165 22 -165 55 l0 30 98 1 97 2 -90 12 c-49 7 -91 14 -92 14 -2 1 -3 17 -3
36 l0 35 133 -5 132 -4 -127 16 c-121 16 -128 18 -128 39 0 50 6 54 104 55
l91 1 -65 9 c-129 18 -130 18 -130 45 0 14 7 28 18 32 13 5 11 8 -12 12 -51 9
-29 25 41 31 48 4 56 6 26 7 -47 2 -75 11 -68 21 8 14 -11 66 -25 66 -7 0 -15
5 -17 11 -7 20 56 24 179 13 66 -6 122 -9 124 -6 3 2 -53 10 -124 17 l-128 12
0 29 c0 17 5 29 13 29 7 0 13 4 13 10 0 8 -29 15 -89 23 -8 1 -16 8 -19 16 -4
11 20 12 149 6 85 -4 267 -13 404 -19z m465 -48 c0 -18 3 -51 7 -72 4 -28 3
-37 -5 -32 -7 4 -12 21 -12 37 0 18 -5 29 -12 28 -31 -4 -38 3 -38 36 0 32 2
35 30 35 27 0 30 -3 30 -32z m-26 -74 c9 -23 8 -24 -19 -24 -37 0 -31 35 6 39
4 1 10 -6 13 -15z m234 -21 c-10 -2 -26 -2 -35 0 -10 3 -2 5 17 5 19 0 27 -2
18 -5z m92 -22 c0 -5 -5 -11 -11 -13 -5 -2 -12 -29 -14 -60 -1 -31 -6 -61 -9
-67 -12 -19 5 -60 23 -56 10 2 24 -1 32 -6 11 -7 10 -9 -5 -9 -19 0 -19 0 0
-19 10 -10 22 -17 25 -15 3 2 6 -4 6 -12 0 -10 -4 -11 -11 -4 -5 5 -17 10 -25
9 -11 0 -12 -2 -3 -6 18 -7 15 -23 -5 -24 -15 0 -15 -2 -3 -7 20 -9 23 -42 3
-35 -7 3 -13 2 -11 -3 4 -14 -25 -54 -39 -54 -17 0 -33 -33 -33 -69 0 -58 -19
-40 -26 26 -14 136 2 273 51 421 5 14 55 17 55 3z m-1650 -38 c0 -28 -3 -34
-10 -23 -13 20 -13 60 0 60 6 0 10 -17 10 -37z m1373 -50 c6 -87 16 -163 44
-318 8 -44 18 -109 23 -145 4 -36 14 -86 20 -113 l12 -47 -53 -58 c-77 -81
-197 -192 -209 -192 -5 0 -19 -9 -30 -20 -11 -11 -25 -18 -32 -16 -7 1 -9 1
-5 -2 12 -6 -50 -62 -69 -62 -15 0 -16 -17 -4 -65 4 -16 8 -22 9 -13 2 25 20
32 39 15 9 -8 31 -18 49 -22 30 -6 33 -4 38 22 4 15 10 38 15 50 9 21 132 108
208 147 35 18 36 23 33 107 -4 78 14 82 28 6 6 -34 20 -100 30 -147 47 -209
60 -269 72 -330 10 -58 39 -171 100 -390 11 -41 32 -106 46 -145 13 -38 31
-92 40 -120 8 -27 27 -89 42 -136 l27 -85 -104 17 c-99 17 -121 24 -111 33 7
8 94 9 111 1 9 -3 25 -5 35 -2 17 4 16 4 -2 11 -11 4 -29 12 -40 18 -14 8 -20
8 -23 -1 -6 -19 -16 -13 -30 18 -9 21 -18 28 -31 24 -25 -6 -35 11 -41 71 -3
29 -11 51 -19 54 -11 4 -13 -7 -9 -52 3 -31 2 -59 -2 -61 -4 -3 -10 32 -12 76
-3 55 -9 84 -19 90 -12 7 -15 -9 -21 -92 -4 -56 -9 -103 -11 -105 -2 -2 -7 64
-11 148 -8 191 -17 322 -22 327 -2 2 -4 -63 -4 -146 0 -82 -2 -152 -5 -155 -6
-6 -165 25 -182 35 -6 4 -14 27 -17 51 -5 34 -12 45 -29 50 -12 3 -24 0 -28
-5 -14 -23 -19 50 -20 278 0 150 -4 240 -11 244 -6 4 -5 14 4 28 17 29 -1 41
-64 41 l-46 0 -1 -132 c-1 -107 -4 -135 -17 -145 -8 -6 -11 -13 -7 -16 15 -9
3 -77 -13 -77 -12 0 -14 23 -13 126 1 116 3 127 21 132 16 4 19 12 16 61 l-3
56 -56 3 -56 3 -6 -53 c-4 -29 -7 -114 -8 -188 0 -74 -4 -144 -9 -155 -5 -13
-6 0 -3 33 4 35 2 52 -6 52 -11 0 -12 -9 -16 -95 -1 -22 -5 -62 -8 -90 -4 -27
-9 -72 -13 -100 -3 -27 -8 -52 -11 -55 -7 -7 8 994 16 1049 5 39 9 44 34 47
24 2 27 -1 27 -25 0 -16 6 -34 13 -40 11 -8 13 -6 13 12 -1 17 5 22 23 22 27
0 40 23 20 35 -27 17 8 36 63 34 29 -1 42 0 28 3 -27 5 -63 37 -53 47 4 3 14
6 24 6 16 0 29 19 29 41 0 5 -7 9 -16 9 -28 0 5 30 35 31 l26 2 -28 4 c-16 3
-27 7 -24 11 2 4 9 22 16 40 11 26 19 32 44 33 31 2 31 2 5 6 -29 4 -36 17
-18 28 6 4 17 1 25 -5 12 -10 15 -9 15 4 0 9 -7 16 -15 16 -8 0 -15 9 -15 20
0 18 7 20 68 21 l67 2 -52 6 c-58 7 -72 16 -55 33 8 8 15 8 27 -2 12 -10 15
-10 15 4 0 10 -8 16 -21 16 -15 0 -19 4 -15 16 3 9 6 22 6 30 0 8 11 14 28 15
16 1 20 3 10 6 -10 2 -18 11 -18 19 0 17 36 19 43 2 3 -7 6 -3 6 9 1 16 -3 20
-19 16 -17 -4 -20 0 -20 25 0 17 5 34 10 37 6 3 10 15 10 27 0 18 4 20 31 14
22 -4 29 -2 27 7 -3 6 -14 13 -25 15 -15 2 -20 11 -21 32 -1 30 0 30 52 30
l53 0 6 -87z m-1395 -18 c-2 -22 -8 -30 -23 -30 -16 0 -19 6 -17 29 2 17 8 41
14 55 l10 26 10 -25 c5 -13 8 -38 6 -55z m-58 16 c0 -5 -6 -11 -14 -14 -8 -3
-12 -15 -9 -30 4 -21 0 -26 -27 -32 -17 -4 -34 -4 -37 -1 -12 12 17 56 42 62
14 3 25 10 25 15 0 5 5 9 10 9 6 0 10 -4 10 -9z m-158 -86 c0 -5 -5 -11 -11
-13 -6 -2 -11 4 -11 13 0 9 5 15 11 13 6 -2 11 -8 11 -13z m-482 -89 c0 -2
-13 -9 -30 -15 -24 -8 -30 -7 -30 5 0 9 10 14 30 14 17 0 30 -2 30 -4z m178
-43 c-2 -27 -8 -39 -22 -41 -27 -6 -37 10 -30 46 5 25 11 32 31 32 22 0 24 -4
21 -37z m33 4 c-8 -8 -11 -7 -11 4 0 20 13 34 18 19 3 -7 -1 -17 -7 -23z m139
24 c22 -7 19 -9 -25 -19 -56 -12 -58 -11 -49 12 6 17 32 19 74 7z m-410 -56
c0 -2 -7 -30 -15 -62 -21 -81 -19 -94 10 -60 20 23 32 27 75 27 45 0 50 -2 50
-23 0 -19 -9 -25 -62 -40 -88 -24 -104 -20 -100 29 4 58 23 134 33 134 5 0 9
-2 9 -5z m-480 -40 c0 -14 -4 -25 -9 -25 -4 0 -6 11 -3 25 2 14 6 25 8 25 2 0
4 -11 4 -25z m250 -55 c5 0 7 -7 3 -15 -3 -9 -8 -13 -11 -11 -3 3 -11 1 -19
-5 -17 -15 -17 6 0 69 l12 47 3 -42 c2 -24 7 -43 12 -43z m1018 -47 c-1 -60 1
-119 6 -132 9 -23 7 -22 -33 9 -39 32 -41 35 -22 44 16 7 22 25 32 97 7 49 14
89 16 89 2 0 2 -48 1 -107z m-893 28 c-7 -51 -25 -71 -25 -27 0 28 20 89 27
82 3 -3 2 -28 -2 -55z m30 7 c-4 -24 -12 -47 -17 -53 -7 -7 -8 -3 -5 10 3 11
8 35 12 53 10 47 18 39 10 -10z m355 -25 c0 -15 2 -16 15 -2 18 18 95 13 95
-6 0 -20 -22 -33 -75 -45 -28 -6 -58 -13 -67 -16 -19 -6 -24 19 -12 64 7 26
44 31 44 5z m171 -116 c-13 -13 -15 41 -3 70 5 13 8 8 10 -21 2 -21 -1 -43 -7
-49z m2434 -44 c-18 -42 -23 -49 -30 -41 -6 5 33 78 41 78 2 0 -3 -17 -11 -37z
m-2090 -127 c25 -24 35 -28 41 -18 7 10 19 10 64 -2 30 -7 73 -17 95 -20 22
-4 48 -9 58 -12 11 -4 17 0 17 10 0 9 -8 16 -17 16 -10 0 -25 5 -33 10 -12 7
-10 11 10 18 l25 10 -25 6 c-14 3 -43 10 -65 16 -32 7 -24 8 37 3 l77 -5 4 38
4 39 1 -40 2 -41 173 0 c107 0 155 2 127 7 -25 4 -61 8 -80 9 -24 0 -46 10
-70 31 l-35 30 50 -7 c28 -3 110 -9 183 -13 121 -5 132 -5 132 12 0 21 9 21
34 2 17 -13 18 -25 14 -140 -4 -112 1 -149 15 -112 3 6 6 -16 6 -50 1 -49 -3
-64 -16 -72 -14 -9 -15 -12 -5 -19 18 -12 13 -150 -5 -160 -8 -5 -14 -49 -19
-137 -3 -72 -7 -143 -9 -160 -1 -16 -3 -47 -4 -67 0 -21 -5 -38 -10 -38 -10 0
-9 -1 -17 143 l-5 97 -57 2 -57 2 58 3 57 4 0 54 0 55 -39 0 c-32 0 -38 -3
-35 -17 2 -11 -6 -25 -20 -35 -23 -16 -26 -16 -65 0 -35 14 -41 21 -36 40 4
15 1 22 -10 22 -9 0 -15 -9 -15 -24 0 -13 -3 -38 -6 -55 -6 -29 -4 -31 22 -32
l29 -2 -27 -4 c-24 -4 -28 -9 -30 -41 l-1 -37 -4 38 c-3 30 -8 37 -26 38 -22
2 -22 2 -1 6 22 4 34 37 34 89 0 26 -13 31 -90 37 -33 3 -27 4 23 5 l67 2 1
58 c1 31 2 69 3 85 2 23 -2 27 -26 27 -21 0 -28 -5 -28 -20 0 -11 5 -20 10
-20 6 0 10 8 10 17 0 13 3 14 12 5 8 -8 8 -15 -2 -28 -12 -13 -30 -15 -120
-11 -58 2 -88 2 -67 0 35 -4 37 -6 38 -41 0 -30 2 -33 9 -17 7 15 9 16 9 4 1
-9 -6 -23 -15 -30 -15 -12 -14 -14 7 -20 15 -5 2 -7 -37 -8 -69 -1 -74 -7 -74
-83 0 -21 -3 -38 -7 -38 -5 0 -8 28 -8 62 0 62 -1 63 -30 69 l-30 7 33 1 c28
1 32 5 34 29 5 86 4 112 -4 112 -4 0 -8 -7 -8 -15 0 -17 -21 -20 -37 -4 -14
14 -63 0 -64 -20 -1 -14 -2 -13 -6 2 -6 21 -23 23 -23 1 0 -10 -6 -14 -14 -11
-8 3 -17 -1 -20 -9 -10 -27 -23 -14 -29 28 -3 24 -5 44 -4 45 3 2 51 -8 97
-21 14 -3 1 5 -27 18 -56 26 -65 41 -34 51 21 6 51 1 124 -22 64 -20 70 -11
11 18 -40 19 -45 24 -28 30 10 4 33 8 51 8 31 1 31 2 35 57 1 31 0 58 -4 61
-5 2 -8 -3 -8 -11 0 -21 -7 -20 -84 8 -36 13 -74 34 -84 47 l-19 23 -12 -21
c-15 -28 -34 -24 -79 19 -20 20 -43 37 -51 40 -8 2 -16 15 -18 27 -3 20 -1 22
12 11 20 -17 25 -10 33 42 l7 43 3 -54 c3 -46 8 -58 37 -85z m2078 54 c3 -12
0 -20 -7 -20 -6 0 -20 -16 -30 -35 -20 -37 -37 -47 -31 -17 3 16 20 51 38 80
12 18 24 15 30 -8z m-1076 -26 c-3 -3 -12 -4 -19 -1 -8 3 -5 6 6 6 11 1 17 -2
13 -5z m-1042 -104 c4 -28 12 -50 18 -50 7 0 19 -5 27 -10 13 -8 11 -12 -8
-26 -17 -12 -22 -23 -18 -42 14 -79 16 -102 8 -102 -5 0 -16 48 -23 106 -8 62
-18 105 -24 103 -5 -2 -9 -19 -9 -36 1 -22 -3 -33 -13 -33 -14 0 -12 30 8 107
14 53 25 48 34 -17z m-78 34 c-3 -3 -12 -4 -19 -1 -8 3 -5 6 6 6 11 1 17 -2
13 -5z m288 -72 c61 -21 74 -27 53 -30 -15 -2 -43 1 -62 7 -29 7 -38 6 -44 -6
-8 -13 -13 -13 -45 1 -28 11 -37 21 -37 39 0 29 16 28 135 -11z m-282 -18 c-3
-8 -12 -13 -20 -10 -8 3 -20 6 -26 6 -19 0 16 20 35 20 12 0 15 -5 11 -16z
m-937 -32 c-9 -17 -20 -33 -26 -37 -5 -3 0 12 12 34 12 23 23 39 26 37 2 -2
-4 -18 -12 -34z m1115 8 c10 -6 19 -16 19 -21 0 -10 -6 -9 -46 7 -16 7 -27
-283 -13 -361 6 -34 9 -79 7 -101 -3 -36 -4 -34 -11 21 -12 88 -27 114 -25 43
1 -32 -1 -60 -4 -64 -4 -3 -4 -12 -1 -20 3 -8 1 -20 -5 -27 -5 -6 -12 -25 -15
-42 -2 -16 -16 -74 -30 -128 -38 -148 -50 -143 -22 8 50 277 77 444 87 549 10
107 20 146 35 146 2 0 13 -5 24 -10z m99 -5 c0 -2 -7 -5 -15 -9 -9 -3 -15 0
-15 9 0 9 6 12 15 9 8 -4 15 -7 15 -9z m-361 -17 c11 -29 9 -30 -22 -23 -16 4
-24 12 -21 20 4 8 -3 15 -18 18 -15 3 -10 5 15 6 31 1 39 -3 46 -21z m68 4
c16 -10 5 -52 -13 -52 -8 0 -14 3 -14 8 0 4 -3 17 -6 30 -7 23 9 29 33 14z
m53 -22 c0 -5 -4 -10 -10 -10 -5 0 -10 5 -10 10 0 6 5 10 10 10 6 0 10 -4 10
-10z m-689 -13 c-1 -4 -1 -14 -1 -22 0 -9 -9 -15 -25 -15 -19 0 -23 4 -18 18
10 27 46 43 44 19z m547 -9 c41 -12 31 -32 -13 -25 -24 4 -35 1 -39 -9 -13
-34 -45 -4 -46 43 0 13 36 10 98 -9z m-588 -88 c0 -5 -4 -10 -10 -10 -5 0 -10
5 -10 10 0 6 5 10 10 10 6 0 10 -4 10 -10z m720 -21 c0 -15 -4 -19 -16 -15 -9
3 -18 6 -20 6 -2 0 -4 7 -4 15 0 8 9 15 20 15 14 0 20 -7 20 -21z m60 -26 c0
-16 -4 -21 -15 -17 -15 6 -21 45 -8 57 9 10 23 -14 23 -40z m-145 16 c4 -5 1
-24 -6 -40 -11 -28 -15 -30 -48 -24 -43 8 -37 3 -46 43 l-7 32 51 0 c27 0 53
-5 56 -11z m75 -40 c0 -10 -4 -19 -10 -19 -5 0 -10 4 -10 9 0 5 -3 17 -6 25
-5 12 -2 15 10 10 9 -3 16 -15 16 -25z m-1024 -1 c-2 -13 -10 -55 -17 -95 -6
-40 -17 -74 -23 -76 -7 -3 -27 9 -45 25 l-33 29 27 41 c33 50 76 98 87 98 5 0
6 -10 4 -22z m798 -8 c5 -5 7 -13 3 -17 -4 -4 -13 -1 -19 5 -7 7 -22 12 -35
12 -13 0 -23 5 -23 11 0 13 59 4 74 -11z m-984 -20 c0 -5 -4 -10 -10 -10 -5 0
-10 5 -10 10 0 6 5 10 10 10 6 0 10 -4 10 -10z m944 -9 c21 -24 15 -37 -20
-44 -22 -4 -25 -2 -20 17 3 11 6 27 6 34 0 18 14 15 34 -7z m326 -1 c12 -8 11
-10 -7 -10 -13 0 -23 5 -23 10 0 13 11 13 30 0z m-243 -112 c-3 -8 -6 -5 -6 6
-1 11 2 17 5 13 3 -3 4 -12 1 -19z m-903 -100 c-4 -5 -15 -8 -25 -5 -11 3 -19
1 -19 -4 0 -5 -11 -9 -24 -9 -18 0 -23 5 -21 18 2 9 7 35 10 57 l7 40 39 -44
c21 -24 36 -48 33 -53z m2176 -43 l0 -115 -25 0 -25 0 2 105 c1 85 4 108 17
115 9 5 19 10 24 10 4 0 7 -52 7 -115z m-582 78 c-10 -2 -28 -2 -40 0 -13 2
-5 4 17 4 22 1 32 -1 23 -4z m-1128 -7 c0 -2 -3 -11 -6 -20 -5 -13 -8 -13 -20
-1 -19 19 -18 25 6 25 11 0 20 -2 20 -4z m957 -38 c-3 -7 -5 -2 -5 12 0 14 2
19 5 13 2 -7 2 -19 0 -25z m-1442 -48 c3 -6 -4 -10 -17 -10 -18 0 -20 2 -8 10
19 12 18 12 25 0z m1245 -360 c-7 -91 -16 -169 -22 -175 -11 -11 -8 78 14 380
l13 170 3 -105 c2 -58 -2 -179 -8 -270z m1025 260 c3 -5 1 -10 -4 -10 -6 0
-11 5 -11 10 0 6 2 10 4 10 3 0 8 -4 11 -10z m-675 -158 c0 -2 -9 -15 -20 -29
-11 -14 -20 -32 -20 -39 0 -8 -7 -14 -16 -14 -10 0 -12 5 -7 12 4 7 8 20 8 28
4 41 6 45 30 45 14 0 25 -2 25 -3z m807 -104 c-3 -8 -6 -5 -6 6 -1 11 2 17 5
13 3 -3 4 -12 1 -19z m-2560 -94 c-3 -3 -12 -4 -19 -1 -8 3 -5 6 6 6 11 1 17
-2 13 -5z m41 -129 c-6 -14 -15 -25 -19 -25 -4 0 -11 -9 -14 -21 l-7 -21 -15
21 c-12 19 -12 24 2 44 l17 22 -7 -23 c-6 -21 -5 -23 13 -13 11 6 22 17 26 26
3 8 8 15 10 15 3 0 0 -11 -6 -25z m90 -31 c-10 -10 -28 6 -28 24 0 15 1 15 17
-1 9 -9 14 -19 11 -23z m1303 16 c5 0 9 -11 9 -25 0 -20 -5 -25 -25 -25 -28 0
-41 20 -31 46 4 10 12 14 22 10 9 -3 20 -6 25 -6z m1314 -32 c36 -7 65 -15 65
-18 0 -3 -40 -4 -90 -2 -70 3 -90 7 -90 18 0 17 30 18 115 2z m-2590 -27 c14
-29 9 -47 -10 -33 -10 7 -19 62 -11 62 3 0 12 -13 21 -29z m1211 -13 c-3 -13
-6 -44 -6 -70 0 -27 -4 -48 -10 -48 -5 0 -10 15 -10 33 0 52 12 107 22 107 6
0 8 -10 4 -22z m1574 -113 c0 -19 -6 -19 -14 0 -3 8 -1 15 4 15 6 0 10 -7 10
-15z m60 -5 c0 -5 -7 -10 -15 -10 -8 0 -15 5 -15 10 0 6 7 10 15 10 8 0 15 -4
15 -10z"/>
<path d="M2038 2923 c6 -2 18 -2 25 0 6 3 1 5 -13 5 -14 0 -19 -2 -12 -5z"/>
<path d="M2440 2919 c0 -5 5 -7 10 -4 6 3 10 8 10 11 0 2 -4 4 -10 4 -5 0 -10
-5 -10 -11z"/>
<path d="M1265 2550 c-9 -15 3 -30 20 -24 8 4 20 -6 30 -25 16 -31 35 -41 35
-18 0 11 -41 55 -67 70 -6 4 -14 3 -18 -3z"/>
<path d="M1320 2435 c0 -8 5 -15 10 -15 6 0 10 7 10 15 0 8 -4 15 -10 15 -5 0
-10 -7 -10 -15z"/>
<path d="M1368 2433 c-5 -25 3 -63 13 -63 12 0 12 67 0 75 -5 3 -11 -3 -13
-12z"/>
<path d="M1928 2223 c12 -2 32 -2 45 0 12 2 2 4 -23 4 -25 0 -35 -2 -22 -4z"/>
<path d="M2068 2213 c12 -2 32 -2 45 0 12 2 2 4 -23 4 -25 0 -35 -2 -22 -4z"/>
<path d="M2083 1983 c15 -2 39 -2 55 0 15 2 2 4 -28 4 -30 0 -43 -2 -27 -4z"/>
<path d="M2213 1973 c15 -2 39 -2 55 0 15 2 2 4 -28 4 -30 0 -43 -2 -27 -4z"/>
<path d="M2328 1963 c6 -2 18 -2 25 0 6 3 1 5 -13 5 -14 0 -19 -2 -12 -5z"/>
<path d="M2388 1963 c7 -3 16 -2 19 1 4 3 -2 6 -13 5 -11 0 -14 -3 -6 -6z"/>
<path d="M1983 1893 c15 -2 37 -2 50 0 12 2 0 4 -28 4 -27 0 -38 -2 -22 -4z"/>
<path d="M2053 1793 c15 -2 37 -2 50 0 12 2 0 4 -28 4 -27 0 -38 -2 -22 -4z"/>
<path d="M2178 1783 c12 -2 30 -2 40 0 9 3 -1 5 -23 4 -22 0 -30 -2 -17 -4z"/>
<path d="M2670 2180 c0 -5 7 -10 16 -10 8 0 12 5 9 10 -3 6 -10 10 -16 10 -5
0 -9 -4 -9 -10z"/>
<path d="M2640 2058 c0 -4 21 -8 48 -7 52 1 48 6 -10 11 -21 2 -38 0 -38 -4z"/>
<path d="M2853 1305 c0 -27 2 -38 4 -22 2 15 2 37 0 50 -2 12 -4 0 -4 -28z"/>
<path d="M1697 1554 c-4 -4 -7 -40 -7 -79 l0 -73 115 -12 c64 -7 118 -10 121
-7 3 3 -25 8 -63 12 -43 5 -80 15 -100 29 -40 26 -42 39 -5 32 53 -10 178 -16
152 -7 -14 5 -41 10 -60 10 -31 1 -90 38 -90 56 0 6 49 2 143 -11 23 -4 37 -2
37 5 0 6 -17 11 -37 11 -21 0 -50 6 -64 14 -31 16 -132 30 -142 20z"/>
<path d="M2130 1509 c0 -8 -26 -10 -87 -6 -57 4 -77 3 -58 -2 17 -5 62 -11
100 -14 65 -5 71 -4 71 14 0 10 -6 19 -13 19 -7 0 -13 -5 -13 -11z"/>
<path d="M2085 1447 c-8 -19 -2 -31 13 -26 5 2 6 13 2 24 -7 19 -8 19 -15 2z"/>
<path d="M1960 1438 c0 -4 16 -8 35 -8 19 0 35 2 35 4 0 2 -16 6 -35 8 -19 2
-35 0 -35 -4z"/>
<path d="M2125 1440 c10 -17 -15 -50 -38 -50 -15 0 -18 -3 -9 -8 22 -14 -22
-45 -57 -40 -20 3 -32 0 -36 -10 -7 -20 -7 -22 11 -22 8 0 12 5 9 10 -3 6 1
10 9 10 20 0 20 -9 0 -31 -9 -10 -23 -15 -32 -12 -10 5 -13 3 -8 -6 5 -7 0
-21 -12 -34 -19 -21 -26 -61 -23 -136 1 -23 2 -23 19 -8 10 10 28 17 40 17 32
0 27 17 -8 24 -50 9 -34 26 28 28 42 1 47 2 20 5 -52 6 -48 22 5 21 61 0 62 0
36 22 l-24 19 54 1 54 0 -27 21 c-29 22 -26 43 5 34 17 -6 19 -1 19 59 0 35 3
71 6 80 5 12 0 16 -21 16 -14 0 -23 -4 -20 -10z"/>
<path d="M2035 1387 c-8 -19 -2 -31 13 -26 5 2 6 13 2 24 -7 19 -8 19 -15 2z"/>
<path d="M1684 1379 c-3 -6 -2 -15 2 -19 13 -12 130 -30 189 -29 43 1 37 3
-36 13 -47 6 -97 19 -112 29 -31 20 -34 20 -43 6z"/>
<path d="M1680 1312 c0 -13 88 -32 138 -31 28 1 20 4 -33 14 -38 6 -78 15 -87
20 -11 4 -18 3 -18 -3z"/>
<path d="M1951 1274 c0 -11 3 -14 6 -6 3 7 2 16 -1 19 -3 4 -6 -2 -5 -13z"/>
<path d="M1687 1249 c7 -7 38 -14 70 -15 49 -3 53 -2 23 5 -79 19 -105 22 -93
10z"/>
<path d="M1662 1108 c3 -7 18 -14 34 -16 28 -2 28 -2 10 13 -24 18 -49 20 -44
3z"/>
<path d="M2120 1086 c0 -8 7 -16 15 -20 10 -4 15 1 15 14 0 11 -7 20 -15 20
-8 0 -15 -6 -15 -14z"/>
<path d="M1272 4590 c0 -14 2 -19 5 -12 2 6 2 18 0 25 -3 6 -5 1 -5 -13z"/>
<path d="M657 4545 c-10 -7 -17 -21 -15 -30 2 -12 8 -8 21 14 20 35 20 36 -6
16z"/>
<path d="M316 4505 c4 -8 7 -15 9 -15 2 0 5 7 9 15 3 9 0 15 -9 15 -9 0 -12
-6 -9 -15z"/>
<path d="M1272 4475 c0 -16 2 -22 5 -12 2 9 2 23 0 30 -3 6 -5 -1 -5 -18z"/>
<path d="M1267 4420 c3 -11 7 -20 9 -20 2 0 4 9 4 20 0 11 -4 20 -9 20 -5 0
-7 -9 -4 -20z"/>
<path d="M542 4378 c-12 -12 -17 -48 -6 -48 11 0 29 25 30 43 2 20 -7 22 -24
5z"/>
<path d="M77 4361 c-4 -17 -3 -21 5 -13 5 5 8 16 6 23 -3 8 -7 3 -11 -10z"/>
<path d="M1230 4374 c0 -5 6 -19 14 -30 9 -11 12 -30 9 -46 -3 -17 -1 -28 6
-28 6 0 11 5 11 12 0 17 17 -3 23 -27 3 -11 5 -4 6 18 1 27 -3 37 -14 37 -8 0
-15 5 -15 10 0 6 5 10 10 10 6 0 10 11 10 25 0 14 -4 25 -10 25 -5 0 -10 -7
-10 -15 0 -20 -17 -19 -29 3 -6 9 -11 12 -11 6z"/>
<path d="M720 4335 c-26 -27 -53 -95 -39 -95 5 0 9 5 9 12 0 6 10 25 23 42 22
28 40 66 33 66 -1 0 -13 -11 -26 -25z"/>
<path d="M222 4270 c0 -14 2 -19 5 -12 2 6 2 18 0 25 -3 6 -5 1 -5 -13z"/>
<path d="M1211 4264 c0 -11 3 -14 6 -6 3 7 2 16 -1 19 -3 4 -6 -2 -5 -13z"/>
<path d="M101 4227 c-8 -21 -18 -37 -22 -37 -4 0 -7 -10 -7 -22 0 -37 -8 -94
-16 -107 -10 -16 3 -14 21 4 20 20 28 13 14 -13 -6 -12 -11 -29 -11 -38 0 -10
-10 -28 -21 -41 -15 -15 -23 -39 -26 -75 -2 -38 -1 -49 7 -38 5 8 10 26 10 40
0 14 9 43 20 65 11 22 20 47 20 57 0 10 9 27 19 37 10 10 22 28 25 39 4 12 19
25 34 31 15 5 21 10 15 10 -7 1 -13 10 -13 21 0 11 -7 20 -15 20 -9 0 -15 9
-15 25 0 14 -4 25 -9 25 -5 0 -11 7 -13 17 -2 10 -8 3 -17 -20z m39 -63 c0
-31 -12 -44 -31 -33 -22 11 -23 18 -8 56 10 27 11 27 25 9 8 -11 14 -25 14
-32z"/>
<path d="M1251 4243 c-1 -13 -5 -23 -11 -23 -12 0 -14 -47 -2 -54 15 -9 33 50
23 75 -10 24 -10 24 -10 2z"/>
<path d="M1291 4214 c0 -11 3 -14 6 -6 3 7 2 16 -1 19 -3 4 -6 -2 -5 -13z"/>
<path d="M650 4213 c0 -7 -7 -13 -16 -13 -8 0 -12 -5 -9 -10 5 -8 11 -8 19 -1
7 6 15 9 17 7 2 -2 16 -6 31 -10 21 -5 26 -3 22 8 -3 8 -13 12 -26 8 -11 -3
-24 1 -29 9 -6 10 -9 10 -9 2z"/>
<path d="M250 4149 c0 -5 5 -7 10 -4 6 3 10 8 10 11 0 2 -4 4 -10 4 -5 0 -10
-5 -10 -11z"/>
<path d="M1280 4096 c0 -14 -4 -26 -10 -26 -5 0 -10 -15 -9 -32 0 -32 1 -32
10 -8 8 20 12 22 19 10 7 -11 10 -3 10 27 0 23 -4 45 -10 48 -6 4 -10 -5 -10
-19z"/>
<path d="M575 4090 c-4 -6 -11 -8 -16 -5 -5 4 -9 -1 -9 -11 0 -12 4 -14 13 -7
6 6 19 12 27 15 10 3 11 6 3 11 -7 4 -14 3 -18 -3z"/>
<path d="M855 4043 c11 -3 26 -10 33 -15 9 -8 11 -7 6 6 -4 10 -16 16 -33 15
-20 -1 -22 -2 -6 -6z"/>
<path d="M180 4019 c0 -5 5 -7 10 -4 6 3 10 8 10 11 0 2 -4 4 -10 4 -5 0 -10
-5 -10 -11z"/>
<path d="M481 3950 c-5 -16 -6 -30 -1 -30 4 0 13 14 19 30 5 17 6 30 1 30 -4
0 -13 -13 -19 -30z"/>
<path d="M669 3889 c-10 -10 -13 -22 -9 -29 6 -9 11 -7 20 9 15 29 9 41 -11
20z"/>
<path d="M160 3885 c-7 -8 -18 -15 -25 -15 -13 0 -37 -32 -65 -84 -21 -42 -38
-43 -43 -4 -2 21 -4 13 -5 -24 -1 -31 -7 -60 -12 -63 -13 -8 -13 -72 0 -80 5
-3 11 -21 11 -38 1 -18 3 -24 6 -14 5 20 14 21 33 5 8 -7 5 -1 -8 13 -36 41
-30 98 15 159 42 54 49 58 56 33 3 -10 5 -3 6 15 1 19 12 48 27 68 26 34 29
60 4 29z"/>
<path d="M874 3821 c-11 -9 -19 -21 -17 -27 2 -6 -3 -17 -12 -24 -8 -7 -15
-17 -15 -23 0 -5 16 11 36 37 39 51 42 65 8 37z"/>
<path d="M627 3813 c-4 -3 -7 -11 -7 -17 0 -6 5 -5 12 2 6 6 9 14 7 17 -3 3
-9 2 -12 -2z"/>
<path d="M1237 3713 c-4 -3 -7 -21 -7 -38 0 -18 -7 -52 -15 -75 -17 -49 -14
-61 7 -28 8 13 18 51 21 86 7 62 6 68 -6 55z"/>
<path d="M1313 3680 c0 -25 2 -35 4 -22 2 12 2 32 0 45 -2 12 -4 2 -4 -23z"/>
<path d="M565 3569 c-4 -6 0 -18 9 -27 15 -15 16 -15 16 5 0 25 -15 38 -25 22z"/>
<path d="M715 3550 c-3 -5 1 -10 9 -10 9 0 16 5 16 10 0 6 -4 10 -9 10 -6 0
-13 -4 -16 -10z"/>
<path d="M760 3410 c8 -5 20 -10 25 -10 6 0 3 5 -5 10 -8 5 -19 10 -25 10 -5
0 -3 -5 5 -10z"/>
<path d="M4 3353 c3 -21 10 -56 15 -78 8 -36 9 -32 10 38 1 65 -2 77 -15 77
-14 0 -15 -7 -10 -37z"/>
<path d="M858 3361 c4 -22 6 -22 17 -8 7 10 18 17 25 17 23 0 -1 15 -24 15
-19 1 -22 -3 -18 -24z"/>
<path d="M1102 3320 c-16 -25 -15 -50 1 -50 7 0 12 14 13 35 0 19 0 35 0 35
-1 0 -7 -9 -14 -20z"/>
<path d="M1220 3252 c0 -5 7 -29 16 -55 11 -33 20 -44 30 -40 11 4 12 9 5 16
-6 6 -11 19 -11 29 0 10 -9 27 -20 38 -11 11 -20 16 -20 12z"/>
<path d="M1051 3208 c-30 -48 -122 -241 -119 -250 2 -5 21 21 42 57 23 40 44
64 51 61 8 -3 11 2 8 15 -3 10 4 42 16 70 24 55 25 83 2 47z"/>
<path d="M866 2904 c-8 -21 -8 -24 3 -24 12 0 22 28 12 35 -5 3 -12 -2 -15
-11z"/>
<path d="M158 2853 c6 -2 18 -2 25 0 6 3 1 5 -13 5 -14 0 -19 -2 -12 -5z"/>
<path d="M0 2658 c0 -9 15 -9 50 2 22 7 20 8 -12 7 -21 0 -38 -4 -38 -9z"/>
<path d="M110 2139 c0 -5 -14 -28 -32 -50 -17 -21 -29 -41 -26 -44 3 -3 21 -8
40 -11 35 -6 35 -6 47 41 9 36 9 50 0 61 -14 17 -29 18 -29 3z"/>
<path d="M0 1040 c0 -13 5 -18 15 -14 12 5 13 10 4 20 -15 19 -19 18 -19 -6z"/>
<path d="M6 996 c3 -9 11 -16 16 -16 13 0 5 23 -10 28 -7 2 -10 -2 -6 -12z"/>
</g>
</svg>
